<svg xmlns="http://www.w3.org/2000/svg" xmlns:xlink="http://www.w3.org/1999/xlink" width="200" height="200" viewBox="0 0 200 200">
    <defs>
        <path id="a" d="M0 148.83h199.905V.185H0z"/>
        <path id="c" d="M42.617.035c.127.982.192 1.984.192 3v39.947H.03V.035h42.587z"/>
        <path id="e" d="M42.148.254c.05.628.077 1.263.077 1.904v39.946H.185V.254h41.963z"/>
        <path id="g" d="M42.517 25.53V3.036c0-1.017-.065-2.018-.192-3.001H.06V25.53h42.456z"/>
        <path id="i" d="M42.517 18.692V3.036c0-1.017-.065-2.019-.192-3.001H.06v18.657h42.456z"/>
    </defs>
    <g fill="none" fill-rule="evenodd">
        <g transform="translate(0 25.107)">
            <path fill="#BBDEFB" d="M191.647 66.25h-18.186a4.536 4.536 0 0 1-3.447-1.588c-1.405-1.647-2.275-3.925-2.275-6.437v-.085c.033-4.214 3.497-7.596 7.711-7.596h8.187c4.56 0 8.258-3.93 8.258-8.778 0-4.848-3.697-8.778-8.258-8.778h-16.432c-2.137-.003-4.075-.986-5.478-2.571-1.405-1.589-2.274-3.785-2.274-6.207v-.09c.036-3.975 3.337-7.149 7.311-7.149h10.078c4.56 0 8.258-3.757 8.258-8.393 0-4.635-3.697-8.393-8.258-8.393H23.063c-4.56 0-8.257 3.758-8.257 8.393 0 4.636 3.697 8.393 8.257 8.393h10.078c3.975 0 7.276 3.174 7.312 7.148v.091c0 2.422-.87 4.618-2.275 6.207-1.402 1.585-3.34 2.568-5.478 2.571H16.268c-4.56 0-8.258 3.93-8.258 8.778 0 4.848 3.698 8.778 8.258 8.778h16.474c4.214 0 7.678 3.382 7.71 7.596l.001.085c0 2.512-.87 4.79-2.275 6.437a4.536 4.536 0 0 1-3.447 1.588H8.258C3.698 66.25 0 70.022 0 74.675c0 4.654 3.697 8.426 8.258 8.426H32.7c4.282.007 7.753 3.775 7.753 8.423 0 2.326-.87 4.434-2.275 5.958a5.606 5.606 0 0 1-4.116 1.8H23.063c-4.56 0-8.257 3.851-8.257 8.602 0 4.75 3.697 8.602 8.257 8.602h9.668c5.48 0 8.586 5.932 7.514 10.825-1.171 5.347-6.465 5.003-10.994 5.003a8.258 8.258 0 0 0-8.255 8.49c.123 4.498 3.927 8.026 8.426 8.026H170.483c4.5 0 8.303-3.528 8.427-8.026a8.259 8.259 0 0 0-8.255-8.49c-4.53 0-9.824.344-10.995-5.003-1.071-4.893 2.035-10.825 7.515-10.825h9.667c4.56 0 8.258-3.851 8.258-8.602 0-4.75-3.697-8.602-8.258-8.602h-10.999a5.606 5.606 0 0 1-4.116-1.8c-1.405-1.524-2.274-3.632-2.274-5.958 0-4.648 3.47-8.416 7.752-8.423h24.442c4.561 0 8.258-3.772 8.258-8.426 0-4.653-3.697-8.425-8.258-8.425"/>
            <mask id="b" fill="#fff">
                <use xlink:href="#a"/>
            </mask>
            <path fill="#7E1012" d="M100.584 143.907h16.49V90.32h-16.49z" mask="url(#b)"/>
            <path fill="#C52228" d="M162.016 54.993v44.814H48.386V54.993c0-15.051 12.202-27.253 27.253-27.253h59.121c6.155 0 11.83 2.038 16.391 5.477a27.266 27.266 0 0 1 4.048 3.748 26.91 26.91 0 0 1 2.597 3.46 27.14 27.14 0 0 1 4.22 14.569" mask="url(#b)"/>
            <path fill="#DF222A" d="M159.782 44.171H70.229v-3.747h87.567a26.738 26.738 0 0 1 1.986 3.747" mask="url(#b)"/>
            <path fill="#B51F24" d="M70.229 75.592h91.787V63.773H70.23z" mask="url(#b)"/>
            <path fill="#FFF" d="M155.198 36.965H65.79v-3.748h85.361a27.236 27.236 0 0 1 4.047 3.748" mask="url(#b)"/>
            <path fill="#DD282F" d="M102.892 54.993v30.689H48.387V54.993c0-15.05 12.202-27.253 27.252-27.253 15.051 0 27.253 12.202 27.253 27.253" mask="url(#b)"/>
            <path fill="#8B1A1C" d="M52.329 95.483V55.375c0-12.854 10.457-23.31 23.31-23.31 12.854 0 23.31 10.456 23.31 23.31v40.108H52.33z" mask="url(#b)"/>
            <path fill="#C52228" d="M6.902 101.825h155.114v-3.748H6.902z" mask="url(#b)"/>
            <path fill="#A61D21" d="M162.016 85.682v16.143H6.902v-3.747h41.485v1.73h54.505V85.681z" mask="url(#b)"/>
            <path fill="#A4A6A8" d="M142.026 10.294H116.179v49.594h9.656V24.46h16.19z" mask="url(#b)"/>
            <path fill="#FFF" d="M142.99 10.294H118.527v49.594h8.274V24.46h16.19z" mask="url(#b)"/>
            <path fill="#FFCF31" d="M130.282 62.573c0 5.316-3.603 9.625-8.047 9.625-4.443 0-8.046-4.31-8.046-9.625 0-5.317 3.603-9.626 8.046-9.626 4.444 0 8.047 4.31 8.047 9.626" mask="url(#b)"/>
            <path fill="#FFF575" d="M127.135 62.573c0 3.237-2.194 5.86-4.9 5.86-2.705 0-4.899-2.623-4.899-5.86 0-3.238 2.194-5.862 4.9-5.862 2.705 0 4.899 2.624 4.899 5.862" mask="url(#b)"/>
        </g>
        <g transform="translate(56.14 77.446)">
            <mask id="d" fill="#fff">
                <use xlink:href="#c"/>
            </mask>
            <path fill="#FFCF3B" d="M58.865 1.734V41.28a1.7 1.7 0 0 1-1.701 1.702H1.732c-.356 0-.688-.11-.961-.299a1.697 1.697 0 0 1-.74-1.403V1.734c0-.37.118-.713.322-.992V.739C.66.311 1.163.035 1.732.035h55.432a1.7 1.7 0 0 1 1.701 1.699" mask="url(#d)"/>
        </g>
        <g transform="translate(56.725 78.324)">
            <mask id="f" fill="#fff">
                <use xlink:href="#e"/>
            </mask>
            <path fill="#FFBC2C" d="M58.28.857v39.546a1.7 1.7 0 0 1-1.701 1.701H1.147c-.356 0-.688-.11-.961-.298L58.17.254c.071.188.11.39.11.603" mask="url(#f)"/>
        </g>
        <g transform="translate(56.433 77.446)">
            <mask id="h" fill="#fff">
                <use xlink:href="#g"/>
            </mask>
            <path fill="#D57C28" d="M58.573 2.356L29.999 24.91c-1.111.877-2.49.821-3.562-.144L.061 1.001V.998C.368.412.871.035 1.439.035h55.432c.73 0 1.348.623 1.591 1.499l.11.822z" mask="url(#h)"/>
        </g>
        <g transform="translate(56.433 77.446)">
            <mask id="j" fill="#fff">
                <use xlink:href="#i"/>
            </mask>
            <path fill="#FECC37" d="M58.573 1.734L29.999 18.237a3.39 3.39 0 0 1-3.562-.105L.061.742V.739C.368.311.871.035 1.439.035h55.432a1.7 1.7 0 0 1 1.591 1.096l.11.603z" mask="url(#j)"/>
        </g>
        <path fill="#FFF35A" d="M70.794 84.22l-.107.191a1.764 1.764 0 0 0 .676 2.394l7.356 4.116a1.764 1.764 0 0 0 2.394-.676l.107-.192a1.764 1.764 0 0 0-.676-2.394l-7.356-4.116a1.764 1.764 0 0 0-2.394.676"/>
        <g>
            <path fill="#7E1012" d="M89.715 171.224h38.143v-3.59H89.715z"/>
            <path fill="#64B5F6" d="M47.885 42.368a3.729 3.729 0 1 1-7.457 0 3.729 3.729 0 0 1 7.457 0M78.35 151.618a3.73 3.73 0 1 1-7.457 0 3.73 3.73 0 0 1 7.458 0M101.103 39.617a2.75 2.75 0 1 1-5.5 0 2.75 2.75 0 0 1 5.5 0M130.594 146.025a1.865 1.865 0 1 1-3.73 0 1.865 1.865 0 0 1 3.73 0M170.527 97.306a1.865 1.865 0 1 1-3.73 0 1.865 1.865 0 0 1 3.73 0M146.15 33.537a1.864 1.864 0 1 1-3.728 0 1.864 1.864 0 0 1 3.728 0M44.156 146.025a1.865 1.865 0 1 1-3.729 0 1.865 1.865 0 0 1 3.73 0"/>
        </g>
    </g>
</svg>
